<svg width="90" height="101" viewBox="0 0 90 101" fill="none" xmlns="http://www.w3.org/2000/svg">
<path d="M69.7376 88.8029V71.5589C69.7376 69.9989 69.4136 68.5709 68.7656 67.2749H73.2296C74.0216 68.1629 74.4176 69.5549 74.4176 71.4509V78.7229C74.8736 77.4749 75.4136 76.3469 76.0376 75.3389C76.6856 74.3069 77.7656 72.8069 79.2776 70.8389L82.0136 67.2749H87.1976L82.8416 72.7829C80.0096 76.4069 78.4376 78.4109 78.1256 78.7949C79.6136 79.0829 80.8376 79.8869 81.7976 81.2069C82.2056 81.7589 82.8416 82.8989 83.7056 84.6269C86.0576 89.1869 87.8936 91.9709 89.2136 92.9789H84.7136C84.1136 92.6669 83.5856 92.2589 83.1296 91.7549C82.6976 91.2269 82.1816 90.4229 81.5816 89.3429C80.6216 87.5669 79.6736 85.5269 78.7376 83.2229C78.0896 81.8069 77.3816 80.9309 76.6136 80.5949C75.7736 81.5789 75.1976 82.5269 74.8856 83.4389C74.5736 84.3509 74.4176 85.5749 74.4176 87.1109V88.6949C74.4176 89.6069 74.5856 90.5069 74.9216 91.3949C74.9456 91.4669 75.1856 91.9949 75.6416 92.9789H70.8896C70.1216 92.1149 69.7376 90.7229 69.7376 88.8029Z" fill="#C60C30"/>
<path d="M53.9994 90.3149H59.4354C60.8274 90.3149 61.9554 90.2189 62.8194 90.0269C63.6834 89.8109 64.5234 89.4389 65.3394 88.9109C64.7394 91.6229 63.1314 92.9789 60.5154 92.9789H50.3634C49.5954 92.0669 49.2114 90.6749 49.2114 88.8029V71.3069C49.1874 69.2669 48.7914 67.9229 48.0234 67.2749H59.6514C62.3634 67.2749 63.9834 68.5469 64.5114 71.0909C63.6954 70.6589 62.8554 70.3589 61.9914 70.1909C61.1514 70.0229 60.0234 69.9389 58.6074 69.9389H53.8194C53.8674 70.3469 53.8914 70.8869 53.8914 71.5589V76.9229H57.9234C59.5554 76.9229 60.7674 77.2589 61.5594 77.9309C62.2074 78.4589 62.6754 79.2989 62.9634 80.4509C62.1954 80.0669 61.4514 79.8269 60.7314 79.7309C60.0354 79.6349 58.7874 79.5869 56.9874 79.5869H53.8914V88.6949C53.8914 89.4389 53.9274 89.9789 53.9994 90.3149Z" fill="#C60C30"/>
<path d="M37.8802 100.719H33.2002C34.1122 99.831 34.8322 98.511 35.3602 96.759L36.5122 92.979C36.2242 93.267 35.7562 93.411 35.1082 93.411C33.8362 93.411 32.7683 92.859 31.9043 91.755C31.1123 90.747 30.5482 89.379 30.2122 87.651C28.7482 79.947 27.8963 75.411 27.6562 74.043H32.2282C32.8282 78.075 33.3322 81.183 33.7402 83.367C34.4842 87.375 34.9522 89.715 35.1442 90.387C35.3602 91.035 35.6723 91.359 36.0802 91.359C36.3922 91.359 36.6442 91.239 36.8363 90.999C37.0282 90.735 37.2203 90.291 37.4123 89.667C37.7243 88.563 38.2162 86.619 38.8882 83.835C39.5602 81.027 39.9803 79.227 40.1483 78.435C40.3163 77.715 40.4002 76.887 40.4002 75.951C40.4002 75.279 40.2923 74.643 40.0763 74.043H44.7562C44.9002 74.571 44.9723 75.087 44.9723 75.591C44.9723 76.335 44.8162 77.331 44.5042 78.579L40.0042 96.471C39.5242 98.367 38.8162 99.783 37.8802 100.719Z" fill="#C60C30"/>
<path d="M18.288 67.2749H23.436C24.276 68.0669 24.696 69.4469 24.696 71.4149V88.6949C24.696 90.2549 25.02 91.6829 25.668 92.9789H21.204C20.412 92.0669 20.016 90.6749 20.016 88.8029V74.0069C19.872 74.9669 19.488 76.3949 18.864 78.2909C18.24 80.1869 17.544 82.0349 16.776 83.8349C15.696 86.3309 15.156 88.5149 15.156 90.3869C15.156 91.3229 15.384 92.1869 15.84 92.9789H11.448L5.004 74.3309C5.076 75.7709 5.112 76.5989 5.112 76.8149V88.6949C5.112 90.2549 5.436 91.6829 6.084 92.9789H2.376C1.608 92.1149 1.224 90.7469 1.224 88.8749V71.9189C1.272 69.4229 0.864 67.8749 0 67.2749H5.976C6.528 67.5389 7.068 68.0189 7.596 68.7149C8.148 69.3869 8.532 70.0829 8.748 70.8029C9.396 73.0589 10.176 75.5189 11.088 78.1829C12.144 81.4949 12.912 83.9669 13.392 85.5989C13.536 84.5429 13.92 83.0789 14.544 81.2069C15.168 79.3349 15.876 77.5589 16.668 75.8789C17.916 73.2149 18.54 70.7789 18.54 68.5709C18.54 68.0429 18.456 67.6109 18.288 67.2749Z" fill="#C60C30"/>
<path d="M54.9998 5.16111C54.3048 5.82311 53.3538 7.53511 53.3538 9.93511C53.3538 10.5111 53.3538 24.2671 53.3538 24.7591C53.3538 25.9891 52.8988 27.1611 52.1668 27.8251C51.7818 28.1791 49.3658 30.3711 49.2168 30.4871H50.6108C51.0328 30.0851 55.4278 26.2121 55.8848 25.6861C56.4808 25.0041 57.9058 23.2831 57.9058 20.5781C57.9058 19.9431 57.9158 6.90711 57.9158 6.33311C57.9158 4.19611 58.9048 3.01111 59.4228 2.43811C59.9488 1.85211 61.6158 0.411113 62.0428 0.0301133L60.6658 0.0161133C60.2688 0.384113 55.4768 4.71011 54.9998 5.16111Z" fill="#C60C30"/>
<path d="M44.1201 59.1281L49.5001 63.8291H53.1071C56.7691 63.8291 60.1141 62.2591 62.3271 60.0481C64.5381 57.8371 65.3541 54.8701 65.3541 52.0911C65.3541 50.0701 65.3541 44.7531 65.3541 44.3841C65.3541 41.7941 63.7301 40.2861 63.2751 39.8351C63.0291 39.5911 61.4601 38.1111 61.4601 38.1111V44.0271C61.4601 44.0271 63.1871 45.8071 63.5261 46.1671C65.1271 47.8661 65.1091 50.9541 60.0551 55.8801C59.1671 56.7431 56.6421 59.1281 53.1671 59.1281C52.6721 59.1281 44.1201 59.1281 44.1201 59.1281Z" fill="#C60C30"/>
<path d="M66.0124 31.8099C66.0124 31.8099 67.5564 33.5829 68.1644 34.0579C70.2004 35.6609 71.0934 33.8289 69.7834 31.7349C69.4734 31.2329 68.2074 30.3919 66.0124 31.8099ZM59.0864 27.5029C58.4844 28.1359 57.9144 29.6869 57.9144 31.0539C57.9144 31.8139 57.9144 33.9739 57.9144 33.9739C57.9144 33.9739 60.2874 33.9739 60.8684 33.9739C62.0214 33.9739 63.0624 33.1179 63.8704 32.3709C63.8914 32.3329 63.8704 29.4739 63.8704 29.4739C63.8704 29.4739 64.6284 30.3449 65.3024 31.0459C66.2944 30.1399 68.8514 27.4659 70.7104 27.4659C74.4784 27.4659 73.6244 32.1869 72.0824 33.7049C71.5854 34.1959 69.3624 36.2339 68.6744 36.8879C66.8984 38.5829 63.8514 37.7729 63.8514 33.3989C63.8514 33.3989 60.5864 36.4999 60.0914 36.9089C59.5934 37.3219 57.9144 39.1049 57.9144 39.1049C57.9144 39.1049 57.9144 46.0539 57.9144 46.7939C57.9144 50.4829 56.7954 51.8119 55.6924 52.8309C55.2034 53.2819 51.2384 56.8799 50.5234 57.5089H49.1174C49.1174 57.5089 51.6714 55.2799 52.1544 54.7749C52.7094 54.2049 53.3524 53.0329 53.3524 51.0859C53.3524 50.5939 53.2924 39.0039 53.2924 39.0039C53.2924 39.0039 35.2284 39.0039 34.4054 39.0039C27.8354 39.0039 26.4324 31.7149 26.3914 29.7659C26.3804 29.1899 26.3914 23.3689 26.3914 22.4629C26.3914 21.2619 25.6254 19.2439 24.3994 18.6189H26.2504C26.4654 18.7109 27.6294 19.1819 27.6294 23.6499C27.6294 23.6499 27.5514 28.8509 27.5514 29.1289C27.5514 31.3949 29.3524 33.9949 31.9574 33.9949C32.4894 33.9949 53.3324 33.9739 53.3324 33.9739C53.3524 33.3989 53.9314 31.2159 54.9584 30.0669C55.5364 29.4149 60.1244 25.2199 60.6464 24.8159L62.0034 24.8019C61.8064 24.9889 59.5794 26.9779 59.0864 27.5029Z" fill="#C60C30"/>
<path d="M43.1839 45.6519C43.1839 46.6809 39.8899 49.4249 39.6969 49.6169C39.4589 48.5059 38.6269 47.2789 36.1699 44.8199L39.7769 41.2109C42.1939 43.6279 43.1839 44.1439 43.1839 45.6519Z" fill="#C60C30"/>
<path d="M36.8699 24.425C35.8839 25.46 35.7099 25.72 34.7849 26.274C34.8699 26.274 45.7199 26.274 46.0739 26.274C49.1359 26.274 48.5239 24.377 47.9719 23.418C46.8529 21.453 43.2999 17.805 43.2999 17.805C43.2999 17.805 37.0779 24.208 36.8699 24.425ZM49.4399 4.291C50.1659 5.018 51.7239 6.977 50.7889 7.913C49.9619 8.739 48.6839 10.053 48.6839 10.053C48.6229 9.578 47.4219 8.441 47.4219 8.441C47.4219 8.441 47.4329 11.926 47.4219 12.358C47.3839 13.93 46.7869 14.379 46.7869 14.379C46.7869 14.379 49.6949 17.262 49.6949 20.969C49.6949 22.768 49.6999 24.418 49.6999 24.774C49.6999 25.536 49.5089 26.122 48.9789 26.705C48.7169 26.995 46.0249 29.705 45.6139 30.075C44.8349 30.777 44.0159 30.895 43.3989 30.895C42.9659 30.895 33.6639 30.895 33.3779 30.895C31.7999 30.895 30.1719 29.664 30.1719 28.428C30.1719 28.122 30.1939 24.715 30.1939 24.715C30.7059 25.307 31.2299 26.004 32.4919 25.987C33.4789 25.968 34.5129 25.196 34.7949 24.918C35.0779 24.631 42.3749 17.006 42.3749 17.006C42.3749 17.006 38.9599 13.84 36.7059 12.332C35.6059 11.6 34.1519 12.527 33.9339 13.497C33.2399 16.526 33.9339 21.08 33.9339 21.08C33.9339 21.08 31.7039 18.851 31.1669 18.318C30.0489 17.2 30.0929 14.673 31.4199 13.347C31.6269 13.134 33.6499 10.853 36.2209 10.853C36.6299 10.853 39.7689 10.853 40.2219 10.853C42.9039 10.853 45.7989 13.482 45.7989 13.482C45.7989 13.482 46.2279 13.007 46.2279 12.554C46.2279 11.179 46.2179 7.511 46.2179 7.511C44.1999 5.49 43.9279 3.409 44.8959 2.439C46.6979 0.632 47.3609 0 47.3609 0C47.3609 0 47.3389 2.187 49.4399 4.291Z" fill="#C60C30"/>
<path d="M23.9995 34.697H22.1465C22.1465 34.697 24.1405 35.793 24.1405 38.613C24.1405 39.357 24.1405 47.006 24.1405 47.621C24.1405 53.48 28.9755 58.902 34.8505 58.902C35.8385 58.902 39.0985 58.902 39.7555 58.902C42.7005 58.902 43.7345 58.189 45.5175 56.607C46.1675 56.027 47.0155 55.076 47.3305 54.728C48.3545 53.58 49.4455 52.654 49.4455 49.632C49.4455 48.894 49.4455 47.093 49.4455 46.681C49.4455 44.134 47.9675 43.074 47.2605 42.363C46.8035 41.904 45.5455 40.706 45.5455 40.706V46.744C45.5455 46.744 46.7805 48.06 47.3295 48.492C49.8745 50.502 47.8535 54.01 45.4805 54.01C45.0095 54.01 35.3655 54.014 34.7075 54.014C30.5615 54.014 25.3775 50.575 25.3775 44.622C25.3775 43.823 25.3775 40.248 25.3775 39.726C25.3795 34.697 23.9995 34.697 23.9995 34.697Z" fill="#C60C30"/>
<path d="M35.811 45.6691C35.811 46.6981 32.514 49.4401 32.321 49.6321C32.085 48.5211 31.251 47.2921 28.792 44.8331L32.402 41.2241C34.819 43.6441 35.811 44.1611 35.811 45.6691Z" fill="#C60C30"/>
</svg>
